# xmcd
#
# Track frame offsets:
#	150
#	8938
#	22104
#	35489
#	47146
#	58061
#	69660
#	81189
#	92517
#	100967
#	112989
#	125055
#
# Disc length: 1835 seconds
#
# Revision: 1
# Processed by: cddbd v1.5.2PL0 Copyright (c) Steve Scherf et al.
# Submitted via: EasyCDDAExtractor 6.5.0.1
#
DISCID=a107290c
DTITLE=BILL CLIFTON - THE BLUEGRASS SOUND OF
DYEAR=2009
DGENRE=Country
TTITLE0=I'M ROLLIN' ON
TTITLE1=SPRINGHILL DISASTER
TTITLE2=LONELY HEART BLUES
TTITLE3=PAL OF YESTERDAY
TTITLE4=COREY
TTITLE5=ALL THE GOOD TIMES ARE PASSED AND GONE
TTITLE6=BED ON THE FLOOR
TTITLE7=GATHERING FLOWERS FROM THE HILLSIDE
TTITLE8=CEDAR GROVE
TTITLE9=YOU DON'T THINK ABOUT ME
TTITLE10=ARE YOU ALONE
TTITLE11=THE GIRL I LEFT IN SUNNY TENNESSEE
EXTD=
EXTT0=
EXTT1=
EXTT2=
EXTT3=
EXTT4=
EXTT5=
EXTT6=
EXTT7=
EXTT8=
EXTT9=
EXTT10=
EXTT11=
PLAYORDER=
